<?xml version="1.0" encoding="UTF-8"?>
<svg version="1.1" xmlns="http://www.w3.org/2000/svg" width="350" height="410">
<path d="M0 0 C0.40508954 44.14541209 0.40508954 44.14541209 -1.67480469 63.83837891 C-2.04796181 67.46629537 -2.37335179 71.09775198 -2.6953125 74.73046875 C-5.73494499 108.61706336 -5.73494499 108.61706336 -10 125 C-11.32 125 -12.64 125 -14 125 C-13.67 125.66 -13.34 126.32 -13 127 C-12.34 126.67 -11.68 126.34 -11 126 C-11.38588826 136.01380022 -13.53864982 145.33776952 -16 155 C-16.66 155 -17.32 155 -18 155 C-17.814375 155.61875 -17.62875 156.2375 -17.4375 156.875 C-17 159 -17 159 -18 161 C-19.32 161 -20.64 161 -22 161 C-21.67 161.66 -21.34 162.32 -21 163 C-20.34 163 -19.68 163 -19 163 C-20.0484906 170.29009348 -21.38487923 177.1110939 -24 184 C-24.44859375 185.27037109 -24.44859375 185.27037109 -24.90625 186.56640625 C-26.89543494 191.94843486 -29.04922037 195.82973261 -33 200 C-32.67 200.33 -32.34 200.66 -32 201 C-31.92504368 207.71608646 -34.02305187 213.1029881 -37 219 C-37.44601562 219.90492188 -37.89203125 220.80984375 -38.3515625 221.7421875 C-39.34802769 223.75110396 -40.35227565 225.7561742 -41.36328125 227.7578125 C-42.49430668 229.9982686 -43.61612954 232.24338556 -44.73046875 234.4921875 C-47.97226118 241.03302257 -51.30177715 247.50267741 -54.8359375 253.890625 C-55.58393276 255.24605266 -56.30765889 256.61531779 -57 258 C-57.66 258 -58.32 258 -59 258 C-59.268125 258.928125 -59.53625 259.85625 -59.8125 260.8125 C-60.9711182 263.92247518 -61.47222158 265.0183118 -64 267 C-79.31241276 271.80439796 -102.32287972 271.21557763 -117 265 C-116.96519531 265.98355469 -116.93039063 266.96710938 -116.89453125 267.98046875 C-116.89989226 272.24676421 -117.69199597 276.17765297 -118.6875 280.3125 C-118.86684082 281.05943115 -119.04618164 281.8063623 -119.23095703 282.57592773 C-123.0771371 297.77773197 -133.04452444 311.11078754 -146 320 C-149.31001514 321.37945244 -152.75326083 322.34850465 -156.1875 323.375 C-157.20489258 323.67954102 -158.22228516 323.98408203 -159.27050781 324.29785156 C-219.71050075 341.86998036 -289.28630654 339.85100021 -350 324 C-348.61105801 320.78017994 -347.05753064 318.92650466 -344.375 316.6875 C-343.66472656 316.08421875 -342.95445312 315.4809375 -342.22265625 314.859375 C-341.48917969 314.24578125 -340.75570313 313.6321875 -340 313 C-335.1746305 308.92721106 -331.04309646 304.87244958 -327 300 C-325.89263821 299.02133885 -324.76630491 298.06385615 -323.625 297.125 C-320.387229 294.43033897 -317.69232136 291.49544878 -314.96875 288.2890625 C-311.78196066 284.5837876 -308.44727282 281.01242945 -305.13671875 277.41796875 C-302.9003945 274.9971754 -302.9003945 274.9971754 -301 272 C-300.34 272 -299.68 272 -299 272 C-298.566875 271.13375 -298.566875 271.13375 -298.125 270.25 C-297.568125 269.13625 -297.568125 269.13625 -297 268 C-296.731875 267.360625 -296.46375 266.72125 -296.1875 266.0625 C-294.56291066 263.24084484 -292.30250847 261.30250847 -290 259 C-285.78963705 253.90702149 -285.78963705 253.90702149 -283 248 C-282.34 248 -281.68 248 -281 248 C-280.5359375 246.824375 -280.5359375 246.824375 -280.0625 245.625 C-279 243 -279 243 -278 241 C-277.34 241 -276.68 241 -276 241 C-275.67 239.35 -275.34 237.7 -275 236 C-274.34 236 -273.68 236 -273 236 C-272.72929687 235.27425781 -272.45859375 234.54851562 -272.1796875 233.80078125 C-271.02836554 231.06734468 -269.6924902 228.70116951 -268.125 226.1875 C-265.5003524 221.88740987 -263.18809987 217.53315206 -261 213 C-260.35512706 211.72867906 -259.70927317 210.45785527 -259.0625 209.1875 C-253.71868398 198.47891182 -248.72545528 187.68052264 -246 176 C-245.67 175.05125 -245.34 174.1025 -245 173.125 C-243.87618946 169.61309206 -243.18918506 166.11822158 -242.5 162.5 C-242.06931372 160.34656858 -241.56555062 158.24581483 -241 156.125 C-239.88302164 151.79670887 -239.20663733 147.41486895 -238.5 143.00390625 C-238.05668145 140.34053149 -237.55007673 137.70544678 -237 135.0625 C-235.93951938 129.93545194 -235.19662979 124.77282421 -234.46484375 119.58984375 C-234 117 -234 117 -233 116 C-233.103125 115.071875 -233.20625 114.14375 -233.3125 113.1875 C-233.209375 112.135625 -233.10625 111.08375 -233 110 C-230 107.625 -230 107.625 -227 106 C-228.65 105.67 -230.3 105.34 -232 105 C-231.34466708 96.99903823 -230.67658869 88.99919168 -230 81 C-229.90928223 79.92298828 -229.81856445 78.84597656 -229.72509766 77.73632812 C-229.46727318 74.69878954 -229.20340784 71.66184042 -228.9375 68.625 C-228.85838379 67.6870459 -228.77926758 66.7490918 -228.69775391 65.78271484 C-228.58246338 64.48648193 -228.58246338 64.48648193 -228.46484375 63.1640625 C-228.399021 62.40561035 -228.33319824 61.6471582 -228.26538086 60.86572266 C-228 59 -228 59 -227 57 C-224.16671395 56.04763822 -221.33505975 55.78082511 -218.3671875 55.53515625 C-217.47773438 55.45716797 -216.58828125 55.37917969 -215.671875 55.29882812 C-213.83088975 55.14327001 -211.98974602 54.98957435 -210.1484375 54.83789062 C-204.74987336 54.36086233 -199.54636243 53.60189315 -194.25683594 52.41235352 C-190.79831737 51.78043683 -187.50645123 51.87013144 -184 52 C-183.67 52.66 -183.34 53.32 -183 54 C-182.34 53.01 -181.68 52.02 -181 51 C-178.6015625 50.12109375 -178.6015625 50.12109375 -175.625 49.4375 C-174.55121094 49.19 -173.47742188 48.9425 -172.37109375 48.6875 C-168.15428242 47.82752457 -163.92297729 47.13114346 -159.671875 46.46484375 C-156.36628742 45.88974883 -153.22010611 44.93675814 -150 44 C-148.4399159 43.71558034 -146.87698305 43.44663264 -145.3125 43.1875 C-136.42966989 41.63575389 -127.72552329 39.25163463 -119 37 C-118.30261719 36.82178711 -117.60523438 36.64357422 -116.88671875 36.45996094 C-109.05549863 34.45507442 -101.31869924 32.23465044 -93.62792969 29.75 C-90.3347312 28.69288157 -87.04130396 27.73769488 -83.68359375 26.9140625 C-80.15175509 26.12684347 -80.15175509 26.12684347 -77.5 25 C-74.69433023 23.87773209 -71.90988503 23.21565767 -68.96484375 22.5625 C-66.94622036 22.05135116 -66.94622036 22.05135116 -65.0078125 20.9921875 C-62.94140412 19.97104406 -61.19706049 19.5389008 -58.9375 19.125 C-52.73110751 17.83028898 -46.56496917 15.81573989 -40.90625 12.93359375 C-38.43917042 11.72533141 -35.87593583 11.19680128 -33.21484375 10.5625 C-28.29476394 9.31295592 -23.54316001 7.77158 -19 5.5 C-15.72101075 3.86050538 -12.44142929 2.75188069 -8.953125 1.6484375 C-5.6270427 0.54417818 -3.60130136 -0.09477109 0 0 Z " fill="#D3E1E7" transform="translate(350,0)"/>
<path d="M0 0 C-1.12530428 3.37591285 -2.16053617 4.28446799 -4.8125 6.5625 C-5.49957031 7.16191406 -6.18664062 7.76132812 -6.89453125 8.37890625 C-8.86555845 9.89648749 -10.73964261 10.97902958 -13 12 C-13 12.66 -13 13.32 -13 14 C-14.5390625 15.55078125 -14.5390625 15.55078125 -16.625 17.3125 C-17.72134766 18.24642578 -17.72134766 18.24642578 -18.83984375 19.19921875 C-20.61725609 20.68093139 -22.40031449 22.15512158 -24.1875 23.625 C-26.97136171 25.90833246 -26.97136171 25.90833246 -29.25 28.25 C-30.1575 29.1575 -31.065 30.065 -32 31 C-32.61617188 31.66 -33.23234375 32.32 -33.8671875 33 C-41.77027196 40.87573815 -50.84903816 44.49640425 -61 49 C-49.12 48.01 -37.24 47.02 -25 46 C-25 46.66 -25 47.32 -25 48 C-26.71354167 48.734375 -28.42708333 49.46875 -30.140625 50.203125 C-31.26138428 50.68346191 -32.38214355 51.16379883 -33.53686523 51.65869141 C-36.03372856 52.72878163 -38.53064154 53.79875588 -41.02758789 54.86865234 C-47.00789061 57.43121454 -52.98795148 59.99433231 -58.96658325 62.56079102 C-61.51197557 63.65341927 -64.05755592 64.74560908 -66.60314941 65.83776855 C-68.40976956 66.61309918 -70.21611741 67.38906419 -72.02246094 68.16503906 C-73.12750977 68.6390918 -74.23255859 69.11314453 -75.37109375 69.6015625 C-76.33974365 70.01744629 -77.30839355 70.43333008 -78.30639648 70.86181641 C-80.85765507 71.93985207 -83.4284244 72.97136976 -86 74 C-75.11 74.495 -75.11 74.495 -64 75 C-64 75.66 -64 76.32 -64 77 C-68.51593578 78.51363352 -73.03256242 80.02518207 -77.54980469 81.53491211 C-79.0822167 82.04737875 -80.6144478 82.56038668 -82.14648438 83.07397461 C-90.3956597 85.83895603 -98.6372332 88.5931612 -107 91 C-106.40050537 91.05534912 -105.80101074 91.11069824 -105.18334961 91.16772461 C-102.43456428 91.42253147 -99.68603394 91.67999616 -96.9375 91.9375 C-95.99455078 92.02451172 -95.05160156 92.11152344 -94.08007812 92.20117188 C-89.02829393 92.67642683 -84.01523261 93.22789068 -79 94 C-79 94.66 -79 95.32 -79 96 C-92.98017645 98.46864306 -106.96886716 100.83884535 -121 103 C-119.37191406 103.07347656 -119.37191406 103.07347656 -117.7109375 103.1484375 C-116.26560216 103.22351986 -114.82029081 103.29906528 -113.375 103.375 C-112.66214844 103.4059375 -111.94929687 103.436875 -111.21484375 103.46875 C-107.77141503 103.65829653 -105.2022547 103.9200328 -101.95703125 105.203125 C-97.85447715 106.30870101 -95.05948988 104.98188307 -91.3125 103.375 C-89.89079602 102.80296018 -88.46892035 102.2313469 -87.046875 101.66015625 C-86.35658203 101.37543457 -85.66628906 101.09071289 -84.95507812 100.79736328 C-82.34813146 99.73414053 -79.71114444 98.76646092 -77.0625 97.8125 C-76.20914062 97.503125 -75.35578125 97.19375 -74.4765625 96.875 C-71.25932205 95.73830937 -68.02357144 94.66404935 -64.77734375 93.61328125 C-62.92798519 93.01857896 -62.92798519 93.01857896 -61 92 C-59.30400476 91.80155578 -57.60178783 91.65506296 -55.8984375 91.53515625 C-54.85905029 91.45837646 -53.81966309 91.38159668 -52.7487793 91.30249023 C-51.63543213 91.22329346 -50.52208496 91.14409668 -49.375 91.0625 C-42.114855 90.52046809 -34.90041348 89.93085088 -27.6875 88.9375 C-18.49361786 87.69666787 -9.26396715 87.36068725 0 87 C-1.35203786 89.70407572 -2.63009824 89.83465852 -5.42578125 90.91796875 C-6.35753174 91.28164551 -7.28928223 91.64532227 -8.24926758 92.02001953 C-9.76556763 92.59792236 -9.76556763 92.59792236 -11.3125 93.1875 C-12.34979248 93.5882373 -13.38708496 93.98897461 -14.45581055 94.40185547 C-21.84637716 97.23540401 -29.2835544 99.91096064 -36.77514648 102.46435547 C-41.61420276 104.12337746 -46.35552954 105.93297047 -51.0871582 107.8762207 C-59.41477354 111.28422463 -66.9599966 113.28784539 -76 114 C-67.63044955 116.83374613 -67.63044955 116.83374613 -59.1875 119.4375 C-53.25844742 121.19391213 -47.40644216 123.174513 -41.54589844 125.14453125 C-36.09472642 126.97622541 -30.64134265 128.80127573 -25.1875 130.625 C-24.04289307 131.00930176 -22.89828613 131.39360352 -21.71899414 131.78955078 C-15.81748829 133.76257364 -9.92065026 135.65468976 -3.91918945 137.30224609 C-2 138 -2 138 0 140 C-7.02725569 140.17897202 -13.7332053 139.65886331 -20.6875 138.6875 C-30.19323008 137.4292565 -39.70365906 136.39798208 -49.25 135.5 C-62.77465251 134.22032513 -76.2897642 132.88835787 -89.78857422 131.35742188 C-92.85865763 131.01573097 -95.93067714 130.7024831 -99.00390625 130.390625 C-110.4549375 129.13974615 -120.13163003 126.49254744 -130.68896484 121.95263672 C-134.87409879 120.22747375 -139.15710447 118.78130252 -143.4375 117.3125 C-145.01969549 116.76740357 -146.60173075 116.22184181 -148.18359375 115.67578125 C-148.97008301 115.40822021 -149.75657227 115.14065918 -150.56689453 114.86499023 C-152.22759297 114.27459744 -153.87456268 113.64446941 -155.50732422 112.98071289 C-163.28527913 109.88090768 -170.96292727 108.78095968 -179.25 107.8125 C-180.58608572 107.64768145 -181.92202499 107.48167127 -183.2578125 107.31445312 C-185.71313039 107.00939099 -188.16911776 106.70962937 -190.62597656 106.41723633 C-194.09109448 105.98873513 -197.54512119 105.50395092 -201 105 C-194.73194468 108.18034334 -188.49218751 111.30512971 -182 114 C-174.73550863 117.18479845 -167.5136656 120.46705453 -160.28515625 123.73242188 C-156.60111747 125.3933518 -152.91700036 127.04606901 -149.1953125 128.62109375 C-145.5887769 130.17745936 -142.1179226 131.92632919 -138.625 133.71875 C-136.12183912 134.9405309 -133.58587984 136.04503353 -131.02099609 137.12988281 C-128.69367596 138.13188438 -126.38796351 139.17628345 -124.08203125 140.2265625 C-123.22029297 140.6184375 -122.35855469 141.0103125 -121.47070312 141.4140625 C-119.68591443 142.22711834 -117.90207112 143.0422524 -116.11914062 143.859375 C-115.26126953 144.24867188 -114.40339844 144.63796875 -113.51953125 145.0390625 C-112.74714111 145.39178223 -111.97475098 145.74450195 -111.17895508 146.10791016 C-109.12986217 146.9468329 -107.15931916 147.52547158 -105 148 C-105 148.66 -105 149.32 -105 150 C-111.30010797 149.41348624 -117.55725389 148.70211654 -123.8125 147.75 C-124.64652344 147.62431641 -125.48054687 147.49863281 -126.33984375 147.36914062 C-135.34787304 145.98678455 -144.32101491 144.40410872 -153.29833984 142.83691406 C-160.9370326 141.50940049 -168.57932779 140.27780831 -176.25170898 139.1640625 C-185.18134985 137.85422417 -194.07820955 136.34579637 -202.97583008 134.8359375 C-208.55101733 133.89271199 -214.12099775 132.96028134 -219.72265625 132.1875 C-220.98613892 132.00864258 -220.98613892 132.00864258 -222.27514648 131.82617188 C-223.75328134 131.62099908 -225.23318084 131.42782248 -226.71508789 131.25195312 C-232.11964577 130.49102496 -236.76472448 128.55765532 -241.75585938 126.39111328 C-247.40904524 123.96698226 -253.1812143 121.85243538 -258.9375 119.6875 C-260.21290298 119.20581452 -261.48821094 118.72387738 -262.76342773 118.24169922 C-265.31037016 117.27888307 -267.85762779 116.31691091 -270.40527344 115.35595703 C-294.63249981 106.21727085 -294.63249981 106.21727085 -303.9140625 102.28125 C-314.48723164 97.89137724 -325.21099387 93.82605724 -336 90 C-336 89.34 -336 88.68 -336 88 C-325.54926162 87.81719597 -315.30092539 88.24511191 -304.89691162 89.22460938 C-293.56109532 90.28683776 -282.25969711 91.18669314 -270.875 91.5 C-260.50622318 91.80093193 -250.20628052 92.5424108 -239.875 93.4375 C-239.13876404 93.49921387 -238.40252808 93.56092773 -237.64398193 93.62451172 C-224.3999478 94.74505502 -224.3999478 94.74505502 -219.390625 96.17578125 C-215.6187065 97.09268771 -213.56621274 96.83275574 -209.875 95.75 C-208.328125 95.31107422 -208.328125 95.31107422 -206.75 94.86328125 C-204.78374814 94.24603457 -202.82616513 93.60089615 -200.875 92.9375 C-198.2170339 92.07077192 -195.68005427 91.51951468 -192.9375 91 C-190.29131993 90.49671464 -188.0049472 90.00197888 -185.5 89 C-176.33062009 85.33224804 -166.57949052 85.50687176 -156.890625 86.3359375 C-155.83029053 86.42137817 -155.83029053 86.42137817 -154.74853516 86.50854492 C-152.7188259 86.67959308 -150.69132706 86.87629055 -148.6640625 87.07421875 C-144.56285527 86.99114526 -142.50861971 86.03852765 -139 84 C-136.35547265 82.92538437 -133.68516001 81.97221311 -131 81 C-133.97 80.67 -136.94 80.34 -140 80 C-140 79.01 -140 78.02 -140 77 C-104 59 -104 59 -102.01171875 58.01171875 C-100.63303195 57.31835976 -99.26086777 56.6119213 -97.89453125 55.89453125 C-97.20746094 55.53746094 -96.52039063 55.18039062 -95.8125 54.8125 C-94.89404297 54.32716797 -94.89404297 54.32716797 -93.95703125 53.83203125 C-89.43557102 51.90973379 -85.04767438 51.88840733 -80.1875 51.9375 C-79.02605469 51.94652344 -77.86460937 51.95554687 -76.66796875 51.96484375 C-75.78753906 51.97644531 -74.90710938 51.98804688 -74 52 C-73.72800781 51.41089844 -73.45601563 50.82179688 -73.17578125 50.21484375 C-70.30040471 44.79843678 -65.49755811 40.1227616 -61 36 C-60.34 36 -59.68 36 -59 36 C-58.34 34.68 -57.68 33.36 -57 32 C-56.34 32 -55.68 32 -55 32 C-54.73574219 31.4225 -54.47148437 30.845 -54.19921875 30.25 C-48.72369003 19.9766953 -39.97796572 16.29518269 -29.61328125 12.421875 C-21.6238577 9.27792887 -13.87238476 5.50655964 -6.25 1.5625 C-3 0 -3 0 0 0 Z M-82 112 C-78 113 -78 113 -78 113 Z " fill="#D3E1E7" transform="translate(350,260)"/>
<path d="M0 0 C0.495 1.98 0.495 1.98 1 4 C-1.64 6.31 -4.28 8.62 -7 11 C-0.54550967 9.64663912 5.70456835 7.95642645 12 6 C30.60041623 0.21956296 30.60041623 0.21956296 37 1 C37.99 2.485 37.99 2.485 39 4 C31.83060897 10.2557505 24.63130554 16.39436381 17.04052734 22.13598633 C12.59005696 25.51301343 8.2595598 29.02315936 3.9375 32.5625 C1.90869862 34.21154341 -0.12206151 35.85812047 -2.15429688 37.50292969 C-3.77973419 38.82133995 -5.39823543 40.14829179 -7.015625 41.4765625 C-14.97259088 47.76656625 -23.64707182 52.24603353 -32.65771484 56.80664062 C-36.17114243 58.59667961 -39.64892006 60.45125325 -43.125 62.3125 C-43.73480713 62.63677979 -44.34461426 62.96105957 -44.97290039 63.29516602 C-49.12154245 65.50659202 -53.21516772 67.80118408 -57.265625 70.1875 C-59 71 -59 71 -62 71 C-61.34 77.27 -60.68 83.54 -60 90 C-68.79767182 90.93142611 -77.54947847 91.2801058 -86.38671875 91.50268555 C-88.73190426 91.562042 -91.07687074 91.62726485 -93.421875 91.69335938 C-102.95056523 91.95220134 -112.46776492 92.05554299 -122 92 C-122.0583721 87.64589022 -122.09372173 83.29188207 -122.125 78.9375 C-122.14175781 77.70837891 -122.15851563 76.47925781 -122.17578125 75.21289062 C-122.25596117 60.33951529 -122.25596117 60.33951529 -118.3125 56.25 C-116 55 -116 55 -112.82421875 53.671875 C-108.91564121 52.01028683 -105.22614437 50.0314548 -101.5 48 C-94.5965112 44.28558928 -87.58806651 40.84733765 -80.5 37.5 C-72.96039862 33.93777929 -65.54269749 30.23381545 -58.20654297 26.27124023 C-53.08943432 23.52674268 -47.88799747 21.01417028 -42.625 18.5625 C-35.96735899 15.46010896 -29.42622318 12.19202833 -22.9375 8.75 C-22.14158447 8.32879883 -21.34566895 7.90759766 -20.52563477 7.47363281 C-17.25142869 5.73724339 -13.98360526 3.99109832 -10.7265625 2.22265625 C-9.84742188 1.75730469 -8.96828125 1.29195313 -8.0625 0.8125 C-7.35222656 0.42707031 -6.64195312 0.04164062 -5.91015625 -0.35546875 C-3.57010611 -1.14505622 -2.29692256 -0.80674909 0 0 Z " fill="#FEFEFE" transform="translate(292,77)"/>
<path d="M0 0 C0.17479432 4.92535818 0.30087066 9.84886083 0.38452148 14.77661133 C0.41943575 16.44783015 0.46698763 18.11883977 0.52807617 19.78930664 C0.92512122 30.93659673 0.30990817 38.02419125 -7 47 C-7.76391365 48.18600059 -8.50874493 49.38480776 -9.22265625 50.6015625 C-10.50640787 52.71116708 -11.80444678 54.81211485 -13.11328125 56.90625 C-14.27371549 58.80907384 -15.38731384 60.74261826 -16.41796875 62.71875 C-18.51906251 66.51427421 -19.86806909 68.53680196 -23.96875 70.21484375 C-27.63268664 71.16136072 -31.20249214 72 -35 72 C-35.09286256 64.2807204 -35.16384714 56.56149905 -35.20724869 48.84178734 C-35.22808423 45.25679099 -35.25632651 41.67217806 -35.30175781 38.08740234 C-35.34536192 34.6249581 -35.36916743 31.16288159 -35.37950897 27.70018387 C-35.39044821 25.74257518 -35.42165128 23.78511352 -35.45318604 21.82772827 C-35.4556869 11.88804997 -35.4556869 11.88804997 -33.28808594 8.26806641 C-29.5924256 4.60474112 -25.84088437 3.83273678 -20.83984375 2.9296875 C-19.88142578 2.75566406 -18.92300781 2.58164063 -17.93554688 2.40234375 C-16.94619141 2.22832031 -15.95683594 2.05429688 -14.9375 1.875 C-13.94427734 1.69324219 -12.95105469 1.51148438 -11.92773438 1.32421875 C-7.853102 0.59435194 -4.15508513 0 0 0 Z " fill="#FEFEFE" transform="translate(157,141)"/>
<path d="M0 0 C3.3 0.99 6.6 1.98 10 3 C10.33 22.47 10.66 41.94 11 62 C3.12701254 66.49884998 3.12701254 66.49884998 0.265625 67.74829102 C-0.38111679 68.03317886 -1.02785858 68.31806671 -1.69419861 68.61158752 C-2.37261307 68.9060527 -3.05102753 69.20051788 -3.75 69.50390625 C-5.2507392 70.16404709 -6.75147135 70.82420395 -8.25219727 71.484375 C-9.02830353 71.82404297 -9.80440979 72.16371094 -10.60403442 72.51367188 C-23.31493931 78.07783969 -35.95317812 83.73108308 -48.38476562 89.90063477 C-49.22845703 90.31498779 -50.07214844 90.72934082 -50.94140625 91.15625 C-51.66013916 91.51525391 -52.37887207 91.87425781 -53.11938477 92.24414062 C-55 93 -55 93 -58 93 C-57.34 91.68 -56.68 90.36 -56 89 C-55.34 89 -54.68 89 -54 89 C-53.5978125 88.13375 -53.5978125 88.13375 -53.1875 87.25 C-51.97070811 84.94449957 -50.69666121 82.97943808 -49 81 C-48.34 81 -47.68 81 -47 81 C-46.9175 80.4225 -46.835 79.845 -46.75 79.25 C-45.78202213 76.3460664 -44.31305716 74.96259396 -42 73 C-41.34 73 -40.68 73 -40 73 C-39.77699219 72.45859375 -39.55398437 71.9171875 -39.32421875 71.359375 C-37.5791625 68.25018923 -35.24671551 65.82164735 -32.8125 63.25 C-31.8066693 62.16985004 -30.80145959 61.08912149 -29.796875 60.0078125 C-29.31154297 59.48735352 -28.82621094 58.96689453 -28.32617188 58.43066406 C-25.4739159 55.35367216 -22.73912187 52.17738137 -20 49 C-19.01567551 47.86974768 -18.03129531 46.73954387 -17.046875 45.609375 C-15.96847155 44.36482456 -14.89034857 43.12003103 -13.8125 41.875 C-13.30082275 41.2886377 -12.78914551 40.70227539 -12.26196289 40.09814453 C-11.27305544 38.9511866 -10.29733232 37.79271767 -9.33569336 36.62280273 C-8.17153731 35.20840952 -6.96052704 33.83284091 -5.7421875 32.46484375 C-2.91635653 26.84486153 -2.82167066 20.89438402 -2.3125 14.6875 C-2.08287093 12.12859487 -1.84998387 9.56997926 -1.61328125 7.01171875 C-1.47079956 5.31728638 -1.47079956 5.31728638 -1.32543945 3.58862305 C-1 1 -1 1 0 0 Z " fill="#FEFEFE" transform="translate(129,215)"/>
<path d="M0 0 C7.05473595 0.60674843 13.46210592 3.01937841 20.125 5.3125 C38.71613938 11.6980755 38.71613938 11.6980755 57.8125 16.25 C58.70775391 16.42273438 59.60300781 16.59546875 60.52539062 16.7734375 C62.6823727 17.18868539 64.84100958 17.59532383 67 18 C64.446645 20.73696704 62.21322534 22.62431481 58.8125 24.1875 C56.20921809 25.31075022 56.20921809 25.31075022 54 27 C51.69946165 27.09443335 49.39597827 27.11742128 47.09350586 27.11352539 C46.37159561 27.11367142 45.64968536 27.11381744 44.90589905 27.1139679 C42.50885053 27.11326869 40.11187877 27.10547595 37.71484375 27.09765625 C36.05717511 27.0957921 34.39950593 27.09436818 32.74183655 27.09336853 C28.37045786 27.08954312 23.99911219 27.07971265 19.62774658 27.06866455 C15.17045539 27.05845092 10.71315889 27.05387101 6.25585938 27.04882812 C-2.49610893 27.0380904 -11.24805036 27.02101371 -20 27 C-19.22726036 23.32604758 -18.23319828 21.97138067 -15.3125 19.5625 C-14.590625 18.95019531 -13.86875 18.33789062 -13.125 17.70703125 C-11.40355734 16.32418117 -9.61643445 15.02336549 -7.8125 13.75 C-3.78859583 9.81551592 -2.04923619 5.17749497 0 0 Z " fill="#FDFEFE" transform="translate(256,141)"/>
<path d="M0 0 C-0.27365613 2.68183003 -0.62257004 5.33130328 -1 8 C-1.13792969 9.14984375 -1.27585937 10.2996875 -1.41796875 11.484375 C-2.9059859 21.27133343 -6.0580334 27.00990884 -13 34 C-13.66 34.69996094 -14.32 35.39992187 -15 36.12109375 C-17.07645433 38.07182526 -19.10431282 39.44139496 -21.5625 40.875 C-22.44679687 41.39191406 -23.33109375 41.90882812 -24.2421875 42.44140625 C-26.87512378 43.92942548 -29.52510205 45.37798409 -32.1875 46.8125 C-36.64020668 49.21445304 -40.98484754 51.75754435 -45.3125 54.375 C-50.42960093 57.46785435 -55.56548459 60.52127014 -60.75 63.5 C-62.44382813 64.47453125 -62.44382813 64.47453125 -64.171875 65.46875 C-67 67 -67 67 -70 68 C-69.10731073 59.51945195 -66.76610146 53.0073466 -60.0625 47.5625 C-58.04339969 46.03936661 -56.02243352 44.51870473 -54 43 C-51.68198443 41.09308406 -49.40301974 39.14190588 -47.125 37.1875 C-45.08925148 35.45102705 -43.04668784 33.72366947 -41 32 C-40.08992188 31.23300781 -39.17984375 30.46601562 -38.2421875 29.67578125 C-36 28 -36 28 -34 28 C-34 27.34 -34 26.68 -34 26 C-32.41015625 24.546875 -32.41015625 24.546875 -30.0625 22.75 C-25.03437029 18.83122842 -20.10015608 14.81266264 -15.1875 10.75 C-13.07259651 9.0023468 -10.95716116 7.25543354 -8.83740234 5.51367188 C-7.25551217 4.21049368 -5.68342565 2.89543153 -4.11328125 1.578125 C-2 0 -2 0 0 0 Z " fill="#FEFEFE" transform="translate(254,56)"/>
<path d="M0 0 C-2.8444761 4.62911134 -5.94207838 8.09664114 -10 11.6875 C-10.52078125 12.15994141 -11.0415625 12.63238281 -11.578125 13.11914062 C-19.22137973 20 -19.22137973 20 -22 20 C-22 20.66 -22 21.32 -22 22 C-24.01953125 23.48046875 -24.01953125 23.48046875 -26.8125 25.1875 C-31.83114239 28.27789299 -36.77153664 31.46373426 -41.6875 34.71484375 C-44 36 -44 36 -47 36 C-47 36.66 -47 37.32 -47 38 C-50.01649306 39.46743436 -53.03891051 40.92225103 -56.0625 42.375 C-57.33383789 42.99375 -57.33383789 42.99375 -58.63085938 43.625 C-63.36981009 45.89384127 -67.89645626 47.73969476 -73 49 C-71.71937515 47.2925002 -70.38232443 45.62626404 -69 44 C-68.34 44 -67.68 44 -67 44 C-66.7525 43.443125 -66.505 42.88625 -66.25 42.3125 C-64.32667877 38.75435573 -61.69695268 35.82237566 -59.08984375 32.74609375 C-52.87645718 24.58158766 -49.40613017 15.46766383 -47.60546875 5.44921875 C-47.40566406 4.64097656 -47.20585937 3.83273437 -47 3 C-44.03445499 1.5172275 -41.39090565 1.92623933 -38.0859375 1.97265625 C-36.67057549 1.98531652 -35.25521076 1.99767642 -33.83984375 2.00976562 C-31.614985 2.03444284 -29.3902687 2.06226886 -27.16552734 2.09594727 C-18.05696198 2.2251973 -8.75805532 -0.54737846 0 0 Z " fill="#D3E1E7" transform="translate(284,272)"/>
<path d="M0 0 C0 0.66 0 1.32 0 2 C-3.57734586 4.03772865 -7.3438966 4.9787417 -11.3125 5.9375 C-12.02833252 6.11224854 -12.74416504 6.28699707 -13.48168945 6.46704102 C-19.80656007 7.98983715 -26.15039806 9.36299478 -32.54833984 10.54638672 C-34.36202186 10.88195943 -36.17470201 11.22295717 -37.98681641 11.56689453 C-56.95240326 15.14093101 -75.77147709 17.48873032 -95 19 C-96.73358765 19.14465698 -96.73358765 19.14465698 -98.50219727 19.29223633 C-109.39658157 20.12479118 -120.2661205 20.19803283 -131.1875 20.1875 C-132.15067139 20.18756042 -133.11384277 20.18762085 -134.10620117 20.18768311 C-150.11911628 20.17342021 -166.07566989 19.84571339 -182 18 C-183.0631543 17.88317871 -184.12630859 17.76635742 -185.22167969 17.64599609 C-191.24261628 16.84216339 -195.12882292 16.18303993 -199.25 11.375 C-199.97703125 10.55773437 -200.7040625 9.74046875 -201.453125 8.8984375 C-202.21882812 7.95871094 -202.21882812 7.95871094 -203 7 C-202.67 6.01 -202.34 5.02 -202 4 C-201.2678125 4.18175781 -200.535625 4.36351562 -199.78125 4.55078125 C-188.91543681 7.07320217 -177.95853691 8.37572882 -166.88916016 9.65869141 C-164.65793563 9.92227531 -162.42946117 10.20920324 -160.20239258 10.50585938 C-144.27811499 12.49317665 -128.05021554 12.15874314 -112.03637695 12.13037109 C-108.4389221 12.12500212 -104.84159176 12.13035634 -101.24414062 12.13671875 C-82.19002393 12.14457716 -63.5443546 11.55109965 -44.6875 8.75 C-43.94072998 8.6418396 -43.19395996 8.5336792 -42.42456055 8.42224121 C-28.82258418 6.44528552 -13.40807299 0 0 0 Z " fill="#D3E1E7" transform="translate(205,324)"/>
<path d="M0 0 C0.99 0.33 1.98 0.66 3 1 C2.67386719 1.90621094 2.34773438 2.81242188 2.01171875 3.74609375 C1.57472656 4.96425781 1.13773438 6.18242187 0.6875 7.4375 C0.25824219 8.63246094 -0.17101562 9.82742187 -0.61328125 11.05859375 C-2.51004568 16.40977058 -4.30238067 21.79286084 -6.01342773 27.20629883 C-15.62542826 57.57382511 -15.62542826 57.57382511 -25 67 C-26.485 67.495 -26.485 67.495 -28 68 C-28 49.52 -28 31.04 -28 12 C-20.08 8.7 -12.16 5.4 -4 2 C-2.68 1.34 -1.36 0.68 0 0 Z " fill="#FEFEFE" transform="translate(173,200)"/>
<path d="M0 0 C0 0.66 0 1.32 0 2 C-2.13461712 3.59482888 -4.26427703 5.05833655 -6.5 6.5 C-7.50474365 7.15778442 -7.50474365 7.15778442 -8.52978516 7.82885742 C-28.08035939 20.5682785 -28.08035939 20.5682785 -37.68359375 25.65234375 C-40.18385695 27.10696568 -42.52288103 28.74830642 -44.89648438 30.39868164 C-52.29137262 35.46200275 -61.07009557 40.28665978 -70.3984375 38.5546875 C-70.92695313 38.37164062 -71.45546875 38.18859375 -72 38 C-71.28972656 37.16855469 -70.57945312 36.33710938 -69.84765625 35.48046875 C-68.91903734 34.38301003 -67.99066473 33.28534287 -67.0625 32.1875 C-66.59392578 31.64029297 -66.12535156 31.09308594 -65.64257812 30.52929688 C-63.53530517 28.02785775 -62.04432364 26.13297093 -61 23 C-59.34616974 21.32059504 -57.67744606 19.6558171 -56 18 C-54.42306517 16.00656577 -52.8813519 13.98479271 -51.375 11.9375 C-50.24191406 10.40416016 -50.24191406 10.40416016 -49.0859375 8.83984375 C-47.03691126 6.1965599 -47.03691126 6.1965599 -45.87841797 3.87426758 C-42.99178673 0.99401439 -39.72960412 1.28771021 -35.859375 1.171875 C-35.0589679 1.1331427 -34.25856079 1.0944104 -33.43389893 1.05450439 C-30.87303331 0.93503929 -28.31197129 0.8423753 -25.75 0.75 C-24.04028683 0.67359547 -22.3306488 0.59548934 -20.62109375 0.515625 C-13.74354539 0.20632832 -6.88524668 -0.04318907 0 0 Z " fill="#FEFEFE" transform="translate(212,170)"/>
<path d="M0 0 C-1.37196165 3.1623716 -2.8565122 4.9936218 -5.5 7.1875 C-9.68927964 10.72579468 -13.7494695 14.38687877 -17.80078125 18.08203125 C-22.73161702 22.38228057 -26.60767029 22.99891765 -33 23 C-37.11259821 22.45431326 -41.09672834 21.54394278 -45.125 20.5625 C-46.176875 20.31951172 -47.22875 20.07652344 -48.3125 19.82617188 C-50.87860326 19.23130248 -53.44047165 18.62244094 -56 18 C-53.31666129 14.81182046 -49.86874453 13.21419622 -46.19140625 11.42578125 C-45.17885269 10.93171783 -45.17885269 10.93171783 -44.14584351 10.42767334 C-41.95824769 9.37405832 -39.76263665 8.33965701 -37.5625 7.3125 C-36.8208963 6.96484589 -36.0792926 6.61719177 -35.31521606 6.25900269 C-23.37846242 0.74499199 -13.25056365 -2.17354325 0 0 Z " fill="#FDFEFE" transform="translate(248,172)"/>
<path d="M0 0 C-1.35745383 5.59949704 -5.42356633 8.85626023 -10 12 C-13.5625 13.1875 -13.5625 13.1875 -15.5390625 13.53125 C-18.23845698 14.04542038 -20.82372885 14.82222199 -23.45458984 15.6081543 C-29.8929838 17.4892561 -35.38000769 18.63567903 -42 17 C-42.76570313 16.82597656 -43.53140625 16.65195313 -44.3203125 16.47265625 C-46.22271039 16.01859961 -48.11308248 15.51461387 -50 15 C-48.7061752 11.11852561 -47.38002393 10.84875734 -43.8125 9 C-42.87019531 8.505 -41.92789062 8.01 -40.95703125 7.5 C-39.98121094 7.005 -39.00539063 6.51 -38 6 C-37.13503906 5.47792969 -36.27007812 4.95585937 -35.37890625 4.41796875 C-30.42255984 2.33802222 -25.43932199 1.90477827 -20.125 1.3125 C-18.54912109 1.11817383 -18.54912109 1.11817383 -16.94140625 0.91992188 C-11.25323013 0.24716512 -5.7264175 -0.14488526 0 0 Z " fill="#FDFDFE" transform="translate(331,124)"/>
<path d="M0 0 C0.57641602 1.86303711 0.57641602 1.86303711 1 4 C-0.22265625 6.19140625 -0.22265625 6.19140625 -2.0625 8.5625 C-5.40858516 13.0730228 -8.12941233 17.68477141 -10.73828125 22.65234375 C-13.74549269 28.24780529 -16.64328493 29.54641602 -22.25 32 C-23.05324707 32.35449219 -23.85649414 32.70898438 -24.68408203 33.07421875 C-32.82443903 36.54520117 -41.07552168 39 -50 39 C-48.78979804 35.36939413 -47.75523833 34.89109674 -44.625 32.8125 C-43.70847656 32.19117188 -42.79195312 31.56984375 -41.84765625 30.9296875 C-40.90792969 30.29289062 -39.96820313 29.65609375 -39 29 C-35.30932941 26.36633747 -31.65598248 23.68152215 -28 21 C-27.27506348 20.46890625 -26.55012695 19.9378125 -25.80322266 19.390625 C-23.32586136 17.57466343 -20.850207 15.75639665 -18.375 13.9375 C-17.58746338 13.35991943 -16.79992676 12.78233887 -15.98852539 12.18725586 C-10.58870396 8.21273941 -5.2729589 4.14124401 0 0 Z " fill="#FDFDFE" transform="translate(93,268)"/>
<path d="M0 0 C-1 3 -1 3 -2.79296875 4.10546875 C-3.58316406 4.46253906 -4.37335938 4.81960938 -5.1875 5.1875 C-9.0282025 6.96813953 -12.54054745 8.96851398 -16.09985352 11.25952148 C-23.35701646 15.81982647 -28.54784711 16.87179727 -37 15 C-37.96808594 14.84402344 -38.93617188 14.68804687 -39.93359375 14.52734375 C-44.79827844 13.70621257 -44.79827844 13.70621257 -47 13 C-47.33 12.34 -47.66 11.68 -48 11 C-41.16501203 8.76151427 -34.47548916 6.788435 -27.375 5.63671875 C-21.58967319 4.54527399 -15.88616658 3.08831966 -10.171875 1.67602539 C-9.29015625 1.46067139 -8.4084375 1.24531738 -7.5 1.0234375 C-6.7059375 0.82669434 -5.911875 0.62995117 -5.09375 0.42724609 C-3 0 -3 0 0 0 Z " fill="#D3E1E7" transform="translate(322,333)"/>
<path d="M0 0 C0.66 0 1.32 0 2 0 C2.06489195 4.00167049 2.04015271 7.99811343 2 12 C2.02900391 13.68802734 2.02900391 13.68802734 2.05859375 15.41015625 C1.95008647 21.59507133 1.48367336 25.2793982 -2.9375 29.8125 C-6.55876289 33 -6.55876289 33 -9 33 C-9.33 33.99 -9.66 34.98 -10 36 C-12.5625 37.1875 -12.5625 37.1875 -15 38 C-14.39703074 34.32975233 -13.36150986 31.34541288 -11.75 28 C-9.3116411 22.78598759 -7.23544762 17.48855114 -5.203125 12.10546875 C-3.61346726 8.00229374 -1.84687624 3.99296707 0 0 Z " fill="#FCFDFD" transform="translate(123,220)"/>
<path d="M0 0 C0.02937438 3.33331439 0.04692334 6.66659483 0.0625 10 C0.07087891 10.93457031 0.07925781 11.86914062 0.08789062 12.83203125 C0.14328502 28.67482906 0.14328502 28.67482906 -3.4375 32.5 C-6 35 -6 35 -8 35 C-8 24.44 -8 13.88 -8 3 C-2 0 -2 0 0 0 Z " fill="#FDFDFE" transform="translate(166,138)"/>
</svg>
